<svg width="350" height="500" viewBox="0 0 350 500" fill="none" xmlns="http://www.w3.org/2000/svg">
<rect width="350" height="500" fill="white"/>
<rect width="350" height="30" fill="#15FF00"/>
<path d="M330.427 14.9365L329.141 15.7083L330.419 17.8385L331.709 15.7154L330.427 14.9365ZM333.942 9.15039V7.65039H333.099L332.66 8.3715L333.942 9.15039ZM337.106 9.15039L338.357 9.97812L339.898 7.65039H337.106V9.15039ZM331.921 16.9873L330.67 16.1596L330.12 16.9908L330.673 17.8199L331.921 16.9873ZM337.268 25V26.5H340.072L338.515 24.1674L337.268 25ZM334.133 25L332.856 25.7879L333.296 26.5H334.133V25ZM330.471 19.0674L331.747 18.2795L330.471 16.2117L329.194 18.2795L330.471 19.0674ZM326.809 25V26.5H327.645L328.085 25.7879L326.809 25ZM323.659 25L322.411 24.1674L320.855 26.5H323.659V25ZM329.006 16.9873L330.254 17.8199L330.807 16.9908L330.257 16.1596L329.006 16.9873ZM323.82 9.15039V7.65039H321.029L322.569 9.97812L323.82 9.15039ZM326.955 9.15039L328.241 8.37865L327.804 7.65039H326.955V9.15039ZM331.709 15.7154L335.224 9.92928L332.66 8.3715L329.145 14.1576L331.709 15.7154ZM333.942 10.6504H337.106V7.65039H333.942V10.6504ZM335.855 8.32266L330.67 16.1596L333.172 17.815L338.357 9.97812L335.855 8.32266ZM330.673 17.8199L336.02 25.8326L338.515 24.1674L333.169 16.1547L330.673 17.8199ZM337.268 23.5H334.133V26.5H337.268V23.5ZM335.409 24.2121L331.747 18.2795L329.194 19.8553L332.856 25.7879L335.409 24.2121ZM329.194 18.2795L325.532 24.2121L328.085 25.7879L331.747 19.8553L329.194 18.2795ZM326.809 23.5H323.659V26.5H326.809V23.5ZM324.907 25.8326L330.254 17.8199L327.758 16.1547L322.411 24.1674L324.907 25.8326ZM330.257 16.1596L325.071 8.32266L322.569 9.97812L327.755 17.815L330.257 16.1596ZM323.82 10.6504H326.955V7.65039H323.82V10.6504ZM325.669 9.92213L329.141 15.7083L331.713 14.1648L328.241 8.37865L325.669 9.92213Z" fill="white"/>
<path d="M330.427 14.9365L329.141 15.7083L330.419 17.8385L331.709 15.7154L330.427 14.9365ZM333.942 9.15039V7.65039H333.099L332.66 8.3715L333.942 9.15039ZM337.106 9.15039L338.357 9.97812L339.898 7.65039H337.106V9.15039ZM331.921 16.9873L330.67 16.1596L330.12 16.9908L330.673 17.8199L331.921 16.9873ZM337.268 25V26.5H340.072L338.515 24.1674L337.268 25ZM334.133 25L332.856 25.7879L333.296 26.5H334.133V25ZM330.471 19.0674L331.747 18.2795L330.471 16.2117L329.194 18.2795L330.471 19.0674ZM326.809 25V26.5H327.645L328.085 25.7879L326.809 25ZM323.659 25L322.411 24.1674L320.855 26.5H323.659V25ZM329.006 16.9873L330.254 17.8199L330.807 16.9908L330.257 16.1596L329.006 16.9873ZM323.82 9.15039V7.65039H321.029L322.569 9.97812L323.82 9.15039ZM326.955 9.15039L328.241 8.37865L327.804 7.65039H326.955V9.15039ZM331.709 15.7154L335.224 9.92928L332.66 8.3715L329.145 14.1576L331.709 15.7154ZM333.942 10.6504H337.106V7.65039H333.942V10.6504ZM335.855 8.32266L330.67 16.1596L333.172 17.815L338.357 9.97812L335.855 8.32266ZM330.673 17.8199L336.02 25.8326L338.515 24.1674L333.169 16.1547L330.673 17.8199ZM337.268 23.5H334.133V26.5H337.268V23.5ZM335.409 24.2121L331.747 18.2795L329.194 19.8553L332.856 25.7879L335.409 24.2121ZM329.194 18.2795L325.532 24.2121L328.085 25.7879L331.747 19.8553L329.194 18.2795ZM326.809 23.5H323.659V26.5H326.809V23.5ZM324.907 25.8326L330.254 17.8199L327.758 16.1547L322.411 24.1674L324.907 25.8326ZM330.257 16.1596L325.071 8.32266L322.569 9.97812L327.755 17.815L330.257 16.1596ZM323.82 10.6504H326.955V7.65039H323.82V10.6504ZM325.669 9.92213L329.141 15.7083L331.713 14.1648L328.241 8.37865L325.669 9.92213Z" fill="white"/>
<path d="M305.619 15.31V13.81H307.119V15.31H305.619ZM305.619 17.35H307.119V18.85H305.619V17.35ZM281.409 17.35V18.85H279.909V17.35H281.409ZM281.409 15.31H279.909V13.81H281.409V15.31ZM307.119 15.31V17.35H304.119V15.31H307.119ZM305.619 18.85H281.409V15.85H305.619V18.85ZM279.909 17.35V15.31H282.909V17.35H279.909ZM281.409 13.81H305.619V16.81H281.409V13.81Z" fill="white"/>
<circle cx="36" cy="468" r="20" fill="#DEDEDE"/>
<rect x="36" y="448" width="200" height="40" fill="#DEDEDE"/>
<path d="M255.5 468C255.5 479.046 246.546 488 235.5 488C224.454 488 215.5 479.046 215.5 468C215.5 456.954 224.454 448 235.5 448C246.546 448 255.5 456.954 255.5 468Z" fill="#DEDEDE"/>
<rect x="269" y="448" width="60" height="40" fill="#15FF00"/>
<path d="M285.01 472.08C285.01 471.735 284.837 471.465 284.492 471.27C284.154 471.068 283.607 470.889 282.852 470.732C280.339 470.205 279.082 469.137 279.082 467.529C279.082 466.592 279.469 465.811 280.244 465.186C281.025 464.554 282.044 464.238 283.301 464.238C284.642 464.238 285.713 464.554 286.514 465.186C287.321 465.817 287.725 466.637 287.725 467.646H284.902C284.902 467.243 284.772 466.911 284.512 466.65C284.251 466.383 283.844 466.25 283.291 466.25C282.816 466.25 282.448 466.357 282.188 466.572C281.927 466.787 281.797 467.061 281.797 467.393C281.797 467.705 281.943 467.959 282.236 468.154C282.536 468.343 283.037 468.509 283.74 468.652C284.443 468.789 285.036 468.945 285.518 469.121C287.008 469.668 287.754 470.615 287.754 471.963C287.754 472.926 287.34 473.708 286.514 474.307C285.687 474.899 284.619 475.195 283.311 475.195C282.425 475.195 281.637 475.039 280.947 474.727C280.264 474.408 279.727 473.975 279.336 473.428C278.945 472.874 278.75 472.279 278.75 471.641H281.426C281.452 472.142 281.637 472.526 281.982 472.793C282.327 473.06 282.79 473.193 283.369 473.193C283.91 473.193 284.316 473.092 284.59 472.891C284.87 472.682 285.01 472.412 285.01 472.08ZM294.443 475.195C292.894 475.195 291.631 474.72 290.654 473.77C289.684 472.819 289.199 471.553 289.199 469.971V469.697C289.199 468.636 289.404 467.689 289.814 466.855C290.225 466.016 290.804 465.371 291.553 464.922C292.308 464.466 293.167 464.238 294.131 464.238C295.576 464.238 296.712 464.694 297.539 465.605C298.372 466.517 298.789 467.809 298.789 469.482V470.635H292.061C292.152 471.325 292.425 471.878 292.881 472.295C293.343 472.712 293.926 472.92 294.629 472.92C295.716 472.92 296.566 472.526 297.178 471.738L298.564 473.291C298.141 473.89 297.568 474.359 296.846 474.697C296.123 475.029 295.322 475.195 294.443 475.195ZM294.121 466.523C293.561 466.523 293.105 466.712 292.754 467.09C292.409 467.467 292.188 468.008 292.09 468.711H296.016V468.486C296.003 467.861 295.833 467.38 295.508 467.041C295.182 466.696 294.72 466.523 294.121 466.523ZM302.998 464.434L303.086 465.654C303.841 464.71 304.854 464.238 306.123 464.238C307.243 464.238 308.076 464.567 308.623 465.225C309.17 465.882 309.45 466.865 309.463 468.174V475H306.641V468.242C306.641 467.643 306.51 467.21 306.25 466.943C305.99 466.67 305.557 466.533 304.951 466.533C304.157 466.533 303.561 466.872 303.164 467.549V475H300.342V464.434H302.998ZM311.172 469.639C311.172 467.992 311.54 466.68 312.275 465.703C313.018 464.727 314.03 464.238 315.312 464.238C316.341 464.238 317.191 464.622 317.861 465.391V460H320.693V475H318.145L318.008 473.877C317.305 474.756 316.4 475.195 315.293 475.195C314.049 475.195 313.05 474.707 312.295 473.73C311.546 472.747 311.172 471.383 311.172 469.639ZM313.994 469.844C313.994 470.833 314.167 471.592 314.512 472.119C314.857 472.646 315.358 472.91 316.016 472.91C316.888 472.91 317.503 472.542 317.861 471.807V467.637C317.51 466.901 316.901 466.533 316.035 466.533C314.674 466.533 313.994 467.637 313.994 469.844Z" fill="white"/>
<rect x="25" y="39" width="120" height="25" fill="#DEDEDE"/>
<circle cx="21.5" cy="51.5" r="12.5" fill="#DEDEDE"/>
<path d="M153 51.5C153 58.4036 147.404 64 140.5 64C133.596 64 128 58.4036 128 51.5C128 44.5964 133.596 39 140.5 39C147.404 39 153 44.5964 153 51.5Z" fill="#DEDEDE"/>
<rect x="45" y="70" width="45" height="25" fill="#15FF00"/>
<path d="M52.1973 84.96C52.4577 84.96 52.6693 84.8883 52.832 84.7451C52.9948 84.6019 53.0794 84.4115 53.0859 84.1738H54.4092C54.4059 84.5319 54.3083 84.8607 54.1162 85.1602C53.9242 85.4564 53.6605 85.6875 53.3252 85.8535C52.9932 86.0163 52.6253 86.0977 52.2217 86.0977C51.4665 86.0977 50.8708 85.8584 50.4346 85.3799C49.9984 84.8981 49.7803 84.234 49.7803 83.3877V83.2949C49.7803 82.4811 49.9967 81.8317 50.4297 81.3467C50.8626 80.8617 51.4567 80.6191 52.2119 80.6191C52.8727 80.6191 53.4017 80.8079 53.7988 81.1855C54.1992 81.5599 54.4027 82.0596 54.4092 82.6846H53.0859C53.0794 82.4111 52.9948 82.1898 52.832 82.0205C52.6693 81.848 52.4544 81.7617 52.1875 81.7617C51.8587 81.7617 51.6097 81.8822 51.4404 82.123C51.2744 82.3607 51.1914 82.748 51.1914 83.2852V83.4316C51.1914 83.9753 51.2744 84.3659 51.4404 84.6035C51.6064 84.8411 51.8587 84.96 52.1973 84.96ZM54.9951 83.3096C54.9951 82.7855 55.096 82.3184 55.2979 81.9082C55.4997 81.498 55.7894 81.1807 56.167 80.9561C56.5479 80.7314 56.9889 80.6191 57.4902 80.6191C58.2031 80.6191 58.7842 80.8372 59.2334 81.2734C59.6859 81.7096 59.9382 82.3021 59.9902 83.0508L60 83.4121C60 84.2227 59.7738 84.8737 59.3213 85.3652C58.8688 85.8535 58.2617 86.0977 57.5 86.0977C56.7383 86.0977 56.1296 85.8535 55.6738 85.3652C55.2214 84.877 54.9951 84.2129 54.9951 83.373V83.3096ZM56.4062 83.4121C56.4062 83.9134 56.5007 84.2975 56.6895 84.5645C56.8783 84.8281 57.1484 84.96 57.5 84.96C57.8418 84.96 58.1087 84.8298 58.3008 84.5693C58.4928 84.3057 58.5889 83.8857 58.5889 83.3096C58.5889 82.818 58.4928 82.4372 58.3008 82.167C58.1087 81.8968 57.8385 81.7617 57.4902 81.7617C57.1452 81.7617 56.8783 81.8968 56.6895 82.167C56.5007 82.4339 56.4062 82.849 56.4062 83.4121ZM62.168 80.7168L62.2119 81.3271C62.5895 80.8551 63.0957 80.6191 63.7305 80.6191C64.2904 80.6191 64.707 80.7835 64.9805 81.1123C65.2539 81.4411 65.3939 81.9326 65.4004 82.5869V86H63.9893V82.6211C63.9893 82.3216 63.9242 82.1051 63.7939 81.9717C63.6637 81.835 63.4473 81.7666 63.1445 81.7666C62.7474 81.7666 62.4495 81.9359 62.251 82.2744V86H60.8398V80.7168H62.168ZM67.7734 80.7168L67.8174 81.3271C68.195 80.8551 68.7012 80.6191 69.3359 80.6191C69.8958 80.6191 70.3125 80.7835 70.5859 81.1123C70.8594 81.4411 70.9993 81.9326 71.0059 82.5869V86H69.5947V82.6211C69.5947 82.3216 69.5296 82.1051 69.3994 81.9717C69.2692 81.835 69.0527 81.7666 68.75 81.7666C68.3529 81.7666 68.055 81.9359 67.8564 82.2744V86H66.4453V80.7168H67.7734ZM74.5117 86.0977C73.737 86.0977 73.1055 85.86 72.6172 85.3848C72.1322 84.9095 71.8896 84.2764 71.8896 83.4854V83.3486C71.8896 82.818 71.9922 82.3444 72.1973 81.9277C72.4023 81.5078 72.6921 81.1855 73.0664 80.9609C73.444 80.7331 73.8737 80.6191 74.3555 80.6191C75.0781 80.6191 75.6462 80.847 76.0596 81.3027C76.4762 81.7585 76.6846 82.4046 76.6846 83.2412V83.8174H73.3203C73.3659 84.1624 73.5026 84.4391 73.7305 84.6475C73.9616 84.8558 74.2529 84.96 74.6045 84.96C75.1481 84.96 75.5729 84.763 75.8789 84.3691L76.5723 85.1455C76.3607 85.445 76.0742 85.6794 75.7129 85.8486C75.3516 86.0146 74.9512 86.0977 74.5117 86.0977ZM74.3506 81.7617C74.0706 81.7617 73.8428 81.8561 73.667 82.0449C73.4945 82.2337 73.3838 82.5039 73.335 82.8555H75.2979V82.7432C75.2913 82.4307 75.2067 82.1898 75.0439 82.0205C74.8812 81.848 74.6501 81.7617 74.3506 81.7617ZM79.6875 84.96C79.9479 84.96 80.1595 84.8883 80.3223 84.7451C80.485 84.6019 80.5697 84.4115 80.5762 84.1738H81.8994C81.8962 84.5319 81.7985 84.8607 81.6064 85.1602C81.4144 85.4564 81.1507 85.6875 80.8154 85.8535C80.4834 86.0163 80.1156 86.0977 79.7119 86.0977C78.9567 86.0977 78.361 85.8584 77.9248 85.3799C77.4886 84.8981 77.2705 84.234 77.2705 83.3877V83.2949C77.2705 82.4811 77.487 81.8317 77.9199 81.3467C78.3529 80.8617 78.9469 80.6191 79.7021 80.6191C80.363 80.6191 80.8919 80.8079 81.2891 81.1855C81.6895 81.5599 81.8929 82.0596 81.8994 82.6846H80.5762C80.5697 82.4111 80.485 82.1898 80.3223 82.0205C80.1595 81.848 79.9447 81.7617 79.6777 81.7617C79.349 81.7617 79.0999 81.8822 78.9307 82.123C78.7646 82.3607 78.6816 82.748 78.6816 83.2852V83.4316C78.6816 83.9753 78.7646 84.3659 78.9307 84.6035C79.0967 84.8411 79.349 84.96 79.6875 84.96ZM84.3945 79.418V80.7168H85.2979V81.752H84.3945V84.3887C84.3945 84.584 84.432 84.724 84.5068 84.8086C84.5817 84.8932 84.7249 84.9355 84.9365 84.9355C85.0928 84.9355 85.2311 84.9242 85.3516 84.9014V85.9707C85.0749 86.0553 84.79 86.0977 84.4971 86.0977C83.5075 86.0977 83.0029 85.598 82.9834 84.5986V81.752H82.2119V80.7168H82.9834V79.418H84.3945Z" fill="white"/>
<rect x="100" y="70" width="45" height="25" fill="#15FF00"/>
<path d="M114.18 83.3096C114.18 82.4795 114.364 81.8236 114.731 81.3418C115.103 80.86 115.61 80.6191 116.255 80.6191C116.821 80.6191 117.272 80.8356 117.607 81.2686L117.7 80.7168H118.94V88.0312H117.524V85.5459C117.199 85.9137 116.772 86.0977 116.245 86.0977C115.617 86.0977 115.116 85.8535 114.741 85.3652C114.367 84.877 114.18 84.1917 114.18 83.3096ZM115.591 83.4121C115.591 83.9167 115.679 84.3008 115.854 84.5645C116.034 84.8281 116.284 84.96 116.606 84.96C117.039 84.96 117.345 84.7874 117.524 84.4424V82.2598C117.349 81.9277 117.046 81.7617 116.616 81.7617C116.291 81.7617 116.038 81.8936 115.859 82.1572C115.68 82.4209 115.591 82.8392 115.591 83.4121ZM123.218 85.4629C122.869 85.8861 122.388 86.0977 121.772 86.0977C121.206 86.0977 120.773 85.9349 120.474 85.6094C120.177 85.2839 120.026 84.807 120.02 84.1787V80.7168H121.431V84.1299C121.431 84.68 121.681 84.9551 122.183 84.9551C122.661 84.9551 122.99 84.7891 123.169 84.457V80.7168H124.585V86H123.257L123.218 85.4629ZM127.139 86H125.723V80.7168H127.139V86ZM125.64 79.3496C125.64 79.138 125.71 78.9639 125.85 78.8271C125.993 78.6904 126.187 78.6221 126.431 78.6221C126.672 78.6221 126.864 78.6904 127.007 78.8271C127.15 78.9639 127.222 79.138 127.222 79.3496C127.222 79.5645 127.148 79.7402 127.002 79.877C126.859 80.0137 126.668 80.082 126.431 80.082C126.193 80.082 126.001 80.0137 125.854 79.877C125.711 79.7402 125.64 79.5645 125.64 79.3496ZM129.995 79.418V80.7168H130.898V81.752H129.995V84.3887C129.995 84.584 130.033 84.724 130.107 84.8086C130.182 84.8932 130.326 84.9355 130.537 84.9355C130.693 84.9355 130.832 84.9242 130.952 84.9014V85.9707C130.675 86.0553 130.391 86.0977 130.098 86.0977C129.108 86.0977 128.604 85.598 128.584 84.5986V81.752H127.812V80.7168H128.584V79.418H129.995Z" fill="white"/>
<rect x="297" y="46" width="18" height="18" stroke="#DEDEDE" stroke-width="2"/>
<rect x="297" y="73" width="18" height="18" stroke="#DEDEDE" stroke-width="2"/>
<rect x="21" y="122" width="308" height="308" rx="25" stroke="#DEDEDE" stroke-width="2"/>
<path d="M181.016 56.877H179.615V60H177.857V51.4688H181.027C182.035 51.4688 182.812 51.6934 183.359 52.1426C183.906 52.5918 184.18 53.2266 184.18 54.0469C184.18 54.6289 184.053 55.1152 183.799 55.5059C183.549 55.8926 183.168 56.2012 182.656 56.4316L184.502 59.918V60H182.615L181.016 56.877ZM179.615 55.4531H181.033C181.475 55.4531 181.816 55.3418 182.059 55.1191C182.301 54.8926 182.422 54.582 182.422 54.1875C182.422 53.7852 182.307 53.4688 182.076 53.2383C181.85 53.0078 181.5 52.8926 181.027 52.8926H179.615V55.4531ZM189.945 57.7617C189.945 57.4297 189.828 57.1758 189.594 57C189.359 56.8203 188.938 56.6328 188.328 56.4375C187.719 56.2383 187.236 56.043 186.881 55.8516C185.912 55.3281 185.428 54.623 185.428 53.7363C185.428 53.2754 185.557 52.8652 185.814 52.5059C186.076 52.1426 186.449 51.8594 186.934 51.6562C187.422 51.4531 187.969 51.3516 188.574 51.3516C189.184 51.3516 189.727 51.4629 190.203 51.6855C190.68 51.9043 191.049 52.2148 191.311 52.6172C191.576 53.0195 191.709 53.4766 191.709 53.9883H189.951C189.951 53.5977 189.828 53.2949 189.582 53.0801C189.336 52.8613 188.99 52.752 188.545 52.752C188.115 52.752 187.781 52.8438 187.543 53.0273C187.305 53.207 187.186 53.4453 187.186 53.7422C187.186 54.0195 187.324 54.252 187.602 54.4395C187.883 54.627 188.295 54.8027 188.838 54.9668C189.838 55.2676 190.566 55.6406 191.023 56.0859C191.48 56.5312 191.709 57.0859 191.709 57.75C191.709 58.4883 191.43 59.0684 190.871 59.4902C190.312 59.9082 189.561 60.1172 188.615 60.1172C187.959 60.1172 187.361 59.998 186.822 59.7598C186.283 59.5176 185.871 59.1875 185.586 58.7695C185.305 58.3516 185.164 57.8672 185.164 57.3164H186.928C186.928 58.2578 187.49 58.7285 188.615 58.7285C189.033 58.7285 189.359 58.6445 189.594 58.4766C189.828 58.3047 189.945 58.0664 189.945 57.7617ZM197.721 58.2422H194.639L194.053 60H192.184L195.359 51.4688H196.988L200.182 60H198.312L197.721 58.2422ZM195.113 56.8184H197.246L196.174 53.625L195.113 56.8184ZM204.389 60.7324H203.129L206.27 51.4688H207.529L204.389 60.7324ZM213.07 52.536H215.602V51.252H211.51V58.548H212.278C213.694 58.548 214.87 58.5 216.214 58.248L216.094 56.964C215.038 57.156 214.102 57.216 213.07 57.24V52.536ZM219.178 49.968V54.228H218.182V50.184H216.706V60.516H218.182V55.5H219.178V61.032H220.678V49.968H219.178ZM231.417 49.98H229.821V56.64H231.417V49.98ZM229.137 55.068C227.409 54.624 226.593 53.496 226.521 52.38H228.741V51.132H226.521V49.992H224.937V51.132H222.705V52.38H224.937C224.877 53.604 224.073 54.816 222.333 55.308L223.077 56.544C224.385 56.172 225.273 55.38 225.765 54.36C226.281 55.272 227.157 55.968 228.417 56.304L229.137 55.068ZM227.685 59.82C226.245 59.82 225.477 59.544 225.477 58.932C225.477 58.332 226.245 58.044 227.685 58.044C229.113 58.044 229.881 58.332 229.881 58.932C229.881 59.544 229.113 59.82 227.685 59.82ZM227.685 56.832C225.345 56.832 223.905 57.612 223.905 58.932C223.905 60.276 225.345 61.032 227.685 61.032C230.013 61.032 231.453 60.276 231.453 58.932C231.453 57.612 230.013 56.832 227.685 56.832ZM234.02 51.036V52.296H237.692C237.644 52.824 237.56 53.304 237.452 53.76L233.456 53.988L233.66 55.32L236.948 55.02C236.3 56.244 235.16 57.264 233.36 58.164L234.2 59.412C238.34 57.336 239.264 54.444 239.264 51.036H234.02ZM240.884 49.968V61.02H242.48V49.968H240.884ZM248.935 53.268C248.935 52.416 249.547 51.912 250.387 51.912C251.215 51.912 251.839 52.416 251.839 53.268C251.839 54.12 251.215 54.612 250.387 54.612C249.547 54.612 248.935 54.12 248.935 53.268ZM253.375 53.268C253.375 51.696 252.079 50.58 250.387 50.58C248.683 50.58 247.387 51.696 247.387 53.268C247.387 54.816 248.683 55.944 250.387 55.944C252.079 55.944 253.375 54.816 253.375 53.268ZM250.375 57.972H254.455V59.664H250.375V57.972ZM248.815 60.9H256.003V56.736H248.815V60.9ZM257.467 52.428H256.003V49.992H254.419V56.256H256.003V53.724H257.467V52.428ZM267.894 51.36H264.114V50.088H262.53V51.36H258.774V52.62H267.894V51.36ZM261.198 55.248C261.198 54.624 261.942 54.312 263.31 54.312C264.702 54.312 265.446 54.624 265.446 55.248C265.446 55.884 264.702 56.172 263.31 56.172C261.942 56.172 261.198 55.884 261.198 55.248ZM264.114 58.644V57.372C265.95 57.192 267.066 56.436 267.066 55.248C267.066 53.892 265.626 53.088 263.31 53.088C261.018 53.088 259.566 53.892 259.566 55.248C259.566 56.436 260.694 57.204 262.53 57.372V58.644H258.342V59.928H268.362V58.644H264.114ZM275.969 51.192H273.521V50.028H271.937V51.192H269.465V52.44H275.969V51.192ZM271.529 54.948C271.529 54.384 272.009 54.072 272.729 54.072C273.449 54.072 273.929 54.384 273.929 54.948C273.929 55.536 273.449 55.848 272.729 55.848C272.009 55.848 271.529 55.536 271.529 54.948ZM273.521 56.952C274.673 56.712 275.429 55.968 275.429 54.948C275.429 53.712 274.313 52.872 272.729 52.872C271.145 52.872 270.029 53.712 270.029 54.948C270.029 55.968 270.785 56.712 271.937 56.952V57.888C270.965 57.912 270.053 57.912 269.261 57.912L269.453 59.196C271.325 59.196 273.809 59.196 276.137 58.74L276.017 57.6C275.225 57.72 274.373 57.78 273.521 57.828V56.952ZM279.545 54.48H278.165V49.98H276.581V61.032H278.165V55.788H279.545V54.48Z" fill="black"/>
<path d="M230.633 81.736H232.217V74.98H230.633V76.756H229.337V78.028H230.633V78.832H229.337V80.092H230.633V81.736ZM225.653 76.972H226.685V79.972C226.337 79.984 225.989 80.008 225.653 80.008V76.972ZM229.217 79.78C228.893 79.816 228.557 79.852 228.209 79.888V76.972H229.085V75.712H223.253V76.972H224.129V80.044C223.721 80.044 223.337 80.044 222.977 80.044L223.145 81.328C224.885 81.328 227.261 81.292 229.313 80.944L229.217 79.78ZM228.473 84.844C227.021 84.844 226.277 84.556 226.277 83.98C226.277 83.392 227.021 83.116 228.473 83.116C229.937 83.116 230.681 83.392 230.681 83.98C230.681 84.556 229.937 84.844 228.473 84.844ZM228.473 81.916C226.121 81.916 224.693 82.672 224.693 83.98C224.693 85.276 226.121 86.032 228.473 86.032C230.837 86.032 232.265 85.276 232.265 83.98C232.265 82.672 230.837 81.916 228.473 81.916ZM241.18 78.316H236.8V76.684H241.18V78.316ZM242.74 75.448H235.24V79.564H242.74V75.448ZM236.752 82.636H235.168V85.84H242.908V84.58H236.752V82.636ZM234.004 80.44V81.688H238.36V83.572H239.944V81.688H244.012V80.44H234.004Z" fill="black"/>
<rect x="163" y="37" width="173" height="63" rx="24" stroke="#DEDEDE" stroke-width="2"/>
</svg>
